<svg xmlns="http://www.w3.org/2000/svg" viewBox="0 0 100 100" fill="white" opacity="0.6">
  <path d="M92.1,21.9c-1-2.6-3.3-4.5-5.9-5.4c-2.6-0.9-5.4-0.8-8.1-0.3c-5.4,1.1-10.4,3.9-14.6,7.5c-4.2,3.6-7.7,8-10.5,12.7
	c-5.6,9.5-8.5,20.5-8.3,31.5c0,1.4,0.1,2.7,0.3,4.1c0.1,1.4,0.4,2.7,0.8,4c0.9,2.6,2.3,5,4.4,6.8c2.1,1.7,4.7,2.7,7.4,2.6
	c2.7-0.1,5.2-1.3,7.2-3.1c1.9-1.9,3.3-4.2,4.1-6.7c1.7-5,1.8-10.5,0.4-15.6c-1.4-5.1-4.2-9.7-7.5-13.8c-6.7-8.2-15.4-14.6-25.2-18.5
	c-9.8-3.9-20.5-5.3-30.9-3.8c-2.6,0.4-5.2,0.9-7.7,1.7c-2.5,0.8-4.9,1.9-7,3.5c-4.1,3.2-6.6,8.5-6,13.7c0.6,5.3,4.1,9.8,8.7,12.5
	s10.2,3.7,15.5,3.4c-5.6,2-12.2,2.3-17.7-0.4c-2.8-1.3-5.2-3.4-6.9-6c-1.7-2.6-2.6-5.8-2.4-8.9c0.2-3.1,1.4-6,3.3-8.3
	c1.9-2.3,4.5-4,7.3-5c2.8-1,5.8-1.4,8.7-1.6c5.9-0.4,11.8,0.1,17.6,1.6s11.4,3.7,16.5,6.7c10.3,6,19,14.9,23.7,25.9
	c2.3,5.5,3.6,11.5,2.9,17.4c-0.6,5.9-3.4,11.7-8.2,15.3c-1.2,0.9-2.5,1.7-3.9,2.2c-1.4,0.5-2.9,0.8-4.3,0.8c-2.9,0-5.7-1-8-2.7
	c-2.3-1.7-4-4-5.1-6.6c-1-2.6-1.4-5.4-1.3-8.2c0-2.8,0.6-5.5,1.4-8.2c1.6-5.3,4.3-10.2,7.6-14.6c3.3-4.4,7.1-8.3,11.4-11.6
	c4.3-3.3,9-6,14.1-7.8c5-1.8,10.4-2.8,15.8-2.1c2.7,0.4,5.3,1.2,7.7,2.6c2.3,1.4,4.3,3.4,5.3,5.9c1,2.4,0.9,5.3-0.2,7.7
	c-1.1,2.4-3.1,4.3-5.4,5.6c-4.6,2.5-10.3,2.6-15,0.5c-4.7-2-8.5-5.7-11-10c-2.4-4.3-3.7-9.2-3.4-14.1c0.3-4.9,2.1-9.6,5.2-13.3
	c3-3.7,7.2-6.3,11.8-7.2c-2.5-1.2-5.5-1.4-8.2-0.7c-2.7,0.7-5.1,2.2-7.1,4.1c-2,1.9-3.5,4.2-4.7,6.6c-1.1,2.5-1.9,5.1-2.2,7.8
	c-0.6,5.4,0.9,10.9,3.6,15.6c2.8,4.7,6.8,8.6,11.7,10.8c2.5,1.1,5.1,1.8,7.8,1.8c2.7,0,5.3-0.7,7.7-2c2.4-1.3,4.4-3.3,5.7-5.7
	c1.3-2.4,1.7-5.2,1-7.9c-0.8-2.7-2.5-5.1-4.7-6.8c-2.2-1.7-4.9-2.8-7.7-3.3c-2.8-0.5-5.6-0.4-8.4,0.1c-5.6,1-11,3.4-15.8,6.7
	c-4.9,3.3-9.2,7.5-13,12.1c-3.8,4.6-7,9.7-9.1,15.3c-2.1,5.6-3.2,11.5-2.5,17.5c0.3,2.9,1.2,5.8,2.7,8.4c1.5,2.6,3.6,4.9,6.2,6.4
	c2.6,1.5,5.6,2.2,8.6,2.1c3-0.1,5.9-1,8.5-2.5c5.2-3,9-8.3,10.8-14c1.8-5.7,1.7-11.8,0.4-17.6c-2.6-11.7-9.6-22.1-18.7-29.6
	c-9.1-7.5-20.2-12.3-31.7-14.5c-2.9-0.6-5.8-0.9-8.7-1c-2.9-0.1-5.9,0-8.8,0.5c-5.8,1-11.4,3.7-15.4,8.2c-1,1.1-1.9,2.4-2.6,3.7
	s-1.3,2.7-1.7,4.1c-0.8,2.9-1,5.9-0.4,8.8c0.6,2.9,1.8,5.6,3.6,7.9c3.5,4.6,9,7.3,14.7,8.3c5.7,0.9,11.5,0.2,17-1.7
	c11-3.9,21-10.7,29.5-18.8c8.5-8.2,15.5-17.9,20.3-28.8C94.2,29.9,94.1,25.7,92.1,21.9z"></path>
</svg>