<svg xmlns="http://www.w3.org/2000/svg" viewBox="0 0 100 100" fill="white" opacity="0.6">
  <path d="M84.5,11.2c-0.5-2-1.7-3.7-3.2-5c-3-2.5-7.1-3.5-11-3.4c-7.8,0.2-15.4,3.4-21.6,8.2
    c-7.3,5.7-13.1,13.1-17,21.3c-1.9,4.1-3.4,8.4-4.2,12.8c-0.4,2.2-0.7,4.4-0.7,6.6c0,2.2,0.2,4.5,0.8,6.7c0.3,1.1,0.7,2.1,1.1,3.1
    c0.2,0.5,0.5,1,0.7,1.5c0.2,0.5,0.5,0.9,0.9,1.3c-0.3-0.4-0.5-0.9-0.7-1.3c-0.2-0.5-0.4-0.9-0.6-1.4c-0.4-1-0.7-2-1-3
    c-0.5-2.1-0.7-4.3-0.6-6.5c0.1-2.2,0.4-4.3,0.9-6.4c0.9-4.3,2.4-8.5,4.3-12.5c4-7.9,9.8-15,17-20.4c6-4.5,13.2-7.6,20.7-7.9
    c3.7-0.1,7.5,0.7,10.4,3c1.4,1.1,2.6,2.7,3.1,4.4c0.6,1.7,0.5,3.5,0,5.2c-0.9,3.5-3.4,6.4-6.4,8.5c-6,4.2-13.5,5.7-20.6,4.8
    c-3.6-0.5-7-1.4-10.3-2.8c-3.3-1.3-6.3-3-9.3-4.7C27.6,15.7,18.7,13.9,9.9,16c-1.6,0.4-3.2,0.9-4.8,1.6c-0.8,0.3-1.5,0.7-2.3,1.1
    S1.3,19.7,0.7,20.3L0,21.1l0.8-0.7c0.5-0.5,1.1-0.9,1.7-1.3c0.6-0.4,1.3-0.7,1.9-1.1c1.3-0.7,2.7-1.2,4.1-1.6
    c2.9-0.8,5.9-1.1,8.9-0.8c6,0.5,11.8,2.9,17.2,5.5c2.7,1.3,5.4,2.6,8.3,3.6c2.9,1,5.9,1.6,8.9,1.9c6.1,0.5,12.3-0.6,17.7-3.4
    c2.7-1.4,5.2-3.3,7.2-5.6c1-1.2,1.9-2.4,2.5-3.8c0.6-1.4,1-3,0.9-4.6C85.3,13.4,84.9,12.2,84.5,11.2z"></path>
  <path d="M44.9,32.9c-0.3,9.8-2.7,19.6-8.6,27.3c-3,3.9-6.8,7.1-11.1,9.2c-2.1,1.1-4.4,1.8-6.8,2.1
    c-1.2,0.1-2.4,0.2-3.5,0c-0.6-0.1-1.2-0.2-1.8-0.3c-0.6-0.2-1.1-0.4-1.7-0.7c0.5,0.3,1.1,0.5,1.6,0.8c0.6,0.2,1.1,0.3,1.7,0.4
    c1.1,0.3,2.3,0.3,3.5,0.2c2.3-0.2,4.6-0.9,6.7-1.9c4.2-2,7.9-5.1,10.8-8.8c5.8-7.4,8.4-16.8,9-26.1c0.3-4.7,0.1-9.4-1.1-13.9
    c-0.6-2.3-1.5-4.4-2.7-6.4c-1.2-2-2.7-3.8-4.5-5.2c-3.5-2.9-8.1-4.1-12.6-4.1c-4.5,0-9,1-13.1,2.8L0.2,12.5l11.1-4
    C15.4,6.7,20,5.9,24.6,6c4.6,0.1,9.2,1.4,12.9,4.2c1.9,1.4,3.5,3.2,4.7,5.3c1.3,2.1,2.2,4.3,2.8,6.7C46.1,26.4,45.2,32.5,44.9,32.9z"></path>
</svg>