<svg xmlns="http://www.w3.org/2000/svg" viewBox="0 0 100 100" fill="white" opacity="0.6">
  <path d="M65.3,9.4C57.8,2.8,47.7,0,37.8,0.4c-9.9,0.3-19.5,3.3-27.9,8.3c-4.2,2.5-8.1,5.5-9.8,10.1c-0.8,2.3-1,4.8-0.3,7.1
    c0.7,2.3,2.2,4.4,4.4,5.4c2.2,1,4.8,0.9,6.9-0.3c0.1,3.1,0.3,6.2,0.4,9.3c0.2,3.1,0.3,6.2,1.2,9.2c0.9,3,2.5,5.8,4.9,7.7
    c2.4,1.9,5.5,2.8,8.5,2.4c3-0.5,5.7-2.4,7.2-5c1.5-2.7,1.8-5.9,1.2-8.9c-0.6-3-1.9-5.8-3.1-8.5c0.4,2.9,0.9,5.9,0.7,8.8
    c-0.2,3-1.2,5.9-3.1,8.1c-1.9,2.3-4.8,3.7-7.7,3.7c-2.9,0-5.7-1.4-7.6-3.6c-1.9-2.2-3-5-3.5-7.9c-0.5-2.9-0.5-5.9-0.5-8.8
    c0-3,0-5.9-0.1-8.9c-0.1-3-0.3-6.1-1.7-8.8c-0.7-1.4-1.7-2.5-3-3.3c-1.3-0.8-2.7-1.2-4.2-1.1c-1.5,0.1-2.9,0.8-3.8,2
    c-0.9,1.2-1.3,2.6-1.3,4.1c-0.1,3,1.5,5.8,3.4,8.2c1.9,2.3,4.4,4.3,7,6c5.1,3.5,10.9,6.2,17.1,6.8c6.2,0.6,12.5-1.1,17.1-5.1
    c-3.4,5.2-9.4,8.7-15.8,9.1c-6.3,0.4-12.7-2-17.8-5.9c-2.6-1.9-5-4.2-6.3-7.1c-0.6-1.5-1-3-0.8-4.6c0.1-0.8,0.3-1.5,0.7-2.2
    c0.4-0.7,0.9-1.2,1.6-1.6c1.3-0.7,3-0.7,4.3,0c1.3,0.7,2.3,1.8,3,3.1c0.7,1.3,1.1,2.7,1.3,4.1c0.2,1.5,0.3,2.9,0.3,4.4
    c0,3,0,5.9,0,8.9c0,3,0.1,5.9,0.6,8.8c0.5,2.9,1.6,5.8,3.5,8c1.9,2.2,4.8,3.7,7.7,3.7c2.9,0,5.8-1.4,7.7-3.7
    c1.9-2.3,2.9-5.1,3.1-8.1c0.2-3-0.3-6-0.7-8.9c-0.9-5.9-1.9-11.9-2.8-17.8c-1-5.9-1.9-11.9-1.9-17.9c0-6,1-12.1,4.2-17.2
    c1.6-2.6,3.7-4.9,6.2-6.6c2.5-1.7,5.5-2.8,8.5-2.9c2.3,0,4.7,0.5,6.7,1.8c2,1.2,3.7,3.1,4.4,5.3c0.4,1.1,0.5,2.3,0.3,3.4
    c-0.1,1.2-0.5,2.2-1,3.3c-1,2-2.4,3.8-4,5.2c-3.3,3-7.3,4.7-11.4,5.5c-4.1,0.8-8.3,0.7-12.4-0.2c-4.1-0.8-8.1-2.4-11.6-4.6
    c-3.5-2.2-6.6-4.9-9.2-8c-2.6-3.1-4.7-6.6-6.2-10.4c-0.8-1.9-1.3-3.8-1.8-5.8c-0.4-2-0.7-4-0.6-6c0.1-2,0.4-4,1.2-5.9
    c0.7-1.8,1.9-3.5,3.5-4.7c1.6-1.2,3.6-1.8,5.6-2c2,0.7,4.9,2.4,6.7,3.6c3.6,2.4,6.8,5.5,9.1,9.1c2.3,3.7,3.9,7.9,4.1,12.3
    c0.2,4.4-1.2,8.7-3.9,12.1C50.1,19.6,57.4,15.8,65.3,9.4z"></path>
</svg>